<svg xmlns="http://www.w3.org/2000/svg" width="380" height="120" viewBox="0 0 380 120">
  <!-- Dark navy background -->
  <rect fill="#0A192F" x="0" y="0" width="380" height="120" rx="14"/>
  <!-- Icon square -->
  <rect fill="#007AFF" x="14" y="14" width="92" height="92" rx="10"/>
  <!-- F: top bar, vertical stem, mid bar -->
  <rect fill="#FFFFFF" x="34" y="32" width="54" height="12" rx="3"/>
  <rect fill="#FFFFFF" x="34" y="32" width="12" height="56" rx="3"/>
  <rect fill="#FFFFFF" x="34" y="62" width="40" height="12" rx="3"/>
  <!-- Divider -->
  <line x1="124" y1="18" x2="124" y2="102" stroke="#007AFF" stroke-width="1.5" opacity="0.5"/>
  <!-- Wordmark (outlined paths, converted from text elements) -->
  <path fill="#F5F5F7" d="M142.6797 56.2900L142.6797 50.0313L147.0977 50.0313L147.0977 47.7656Q147.0977 43.9707 147.9048 42.1016Q148.7119 40.2324 150.8784 39.0571Q153.0449 37.8818 156.3584 37.8818L156.3584 37.8818Q159.7568 37.8818 163.0137 38.9014L163.0137 38.9014L161.9375 44.4521Q160.0400 43.9990 158.2842 43.9990L158.2842 43.9990Q156.5566 43.9990 155.8062 44.8062Q155.0557 45.6133 155.0557 47.9072L155.0557 47.9072L155.0557 50.0313L161.0029 50.0313L161.0029 56.2900L155.0557 56.2900L155.0557 80.1074L147.0977 80.1074L147.0977 56.2900L142.6797 56.2900Z M162.6367 64.6445L162.6367 64.6445Q162.6367 60.6797 164.5908 56.9697Q166.5449 53.2598 170.1274 51.3057Q173.7100 49.3516 178.1279 49.3516L178.1279 49.3516Q184.9531 49.3516 189.3145 53.7837Q193.6758 58.2158 193.6758 64.9844L193.6758 64.9844Q193.6758 71.8096 189.2720 76.2983Q184.8682 80.7871 178.1846 80.7871L178.1846 80.7871Q174.0498 80.7871 170.2974 78.9180Q166.5449 77.0488 164.5908 73.4380Q162.6367 69.8271 162.6367 64.6445ZM170.7930 65.0693L170.7930 65.0693Q170.7930 69.5439 172.9170 71.9229Q175.0410 74.3018 178.1563 74.3018L178.1563 74.3018Q181.2715 74.3018 183.3813 71.9229Q185.4912 69.5439 185.4912 65.0127L185.4912 65.0127Q185.4912 60.5947 183.3813 58.2158Q181.2715 55.8369 178.1563 55.8369L178.1563 55.8369Q175.0410 55.8369 172.9170 58.2158Q170.7930 60.5947 170.7930 65.0693Z M206.5244 70.8184L206.5244 80.1074L198.5664 80.1074L198.5664 50.0313L205.9580 50.0313L205.9580 54.3076Q207.8555 51.2773 209.3706 50.3145Q210.8857 49.3516 212.8115 49.3516L212.8115 49.3516Q215.5303 49.3516 218.0508 50.8525L218.0508 50.8525L215.5869 57.7910Q213.5762 56.4883 211.8486 56.4883L211.8486 56.4883Q210.1777 56.4883 209.0166 57.4087Q207.8555 58.3291 207.1899 60.7363Q206.5244 63.1436 206.5244 70.8184L206.5244 70.8184Z M228.8320 50.0313L234.2695 50.0313L234.2695 56.3750L228.8320 56.3750L228.8320 68.4961Q228.8320 72.1777 228.9878 72.7866Q229.1436 73.3955 229.6958 73.7920Q230.2480 74.1885 231.0410 74.1885L231.0410 74.1885Q232.1455 74.1885 234.2412 73.4238L234.2412 73.4238L234.9209 79.5977Q232.1455 80.7871 228.6338 80.7871L228.6338 80.7871Q226.4814 80.7871 224.7539 80.0649Q223.0264 79.3428 222.2192 78.1958Q221.4121 77.0488 221.1006 75.0947L221.1006 75.0947Q220.8457 73.7070 220.8457 69.4873L220.8457 69.4873L220.8457 56.3750L217.1924 56.3750L217.1924 50.0313L220.8457 50.0313L220.8457 44.0557L228.8320 39.4111L228.8320 50.0313Z"/>
  <path fill="#007AFF" d="M246.7500 80.1074L238.7920 80.1074L238.7920 38.5898L246.7500 38.5898L246.7500 80.1074Z M261.5811 80.1924L250.1396 50.0313L258.6074 50.0313L265.8008 71.3848L272.8242 50.0313L281.0654 50.0313L270.4453 78.9746L268.5479 84.2139Q267.5000 86.8477 266.5513 88.2354Q265.6025 89.6230 264.3706 90.4868Q263.1387 91.3506 261.3403 91.8320Q259.5420 92.3135 257.2764 92.3135L257.2764 92.3135Q254.9824 92.3135 252.7734 91.8320L252.7734 91.8320L252.0654 85.6016Q253.9346 85.9697 255.4355 85.9697L255.4355 85.9697Q258.2109 85.9697 259.5420 84.3413Q260.8730 82.7129 261.5811 80.1924L261.5811 80.1924Z"/>
</svg>